# Blender v3.0.1 OBJ File: 'Hatchback.blend'
# www.blender.org
mtllib Hatchback.mtl
o Car_Cube
v 1.000000 1.800000 -1.000000
v 1.100000 0.000000 -1.000000
v 1.000000 1.800000 1.000000
v 1.100000 0.000000 1.000000
v -1.000000 1.800000 -1.000000
v -1.100000 0.000000 -1.000000
v -1.000000 1.800000 1.000000
v -1.100000 0.000000 1.000000
v 1.100000 0.900000 1.400000
v 1.100000 0.000000 1.400000
v -1.100000 0.900000 1.400000
v -1.100000 0.000000 1.400000
v 1.100000 0.800000 3.000000
v 1.100000 0.000000 3.000000
v -1.100000 0.800000 3.000000
v -1.100000 0.000000 3.000000
v 1.100000 0.800000 -3.000000
v 1.100000 0.000000 -3.000000
v -1.100000 0.800000 -3.000000
v -1.100000 0.000000 -3.000000
vt 0.625000 0.500000
vt 0.875000 0.500000
vt 0.875000 0.750000
vt 0.625000 0.750000
vt 0.625000 0.000000
vt 0.375000 0.000000
vt 0.375000 0.000000
vt 0.625000 0.000000
vt 0.625000 0.250000
vt 0.375000 0.250000
vt 0.125000 0.500000
vt 0.375000 0.500000
vt 0.375000 0.750000
vt 0.125000 0.750000
vt 0.375000 0.500000
vt 0.625000 0.500000
vt 0.375000 0.750000
vt 0.625000 0.750000
vt 0.625000 0.750000
vt 0.375000 0.750000
vt 0.125000 0.750000
vt 0.875000 0.750000
vt 0.625000 1.000000
vt 0.375000 1.000000
vt 0.875000 0.750000
vt 0.375000 0.000000
vt 0.625000 0.000000
vt 0.125000 0.750000
vt 0.375000 0.250000
vt 0.625000 0.250000
vt 0.125000 0.500000
vt 0.875000 0.500000
vn 0.0000 1.0000 0.0000
vn -0.9959 0.0369 -0.0830
vn -0.9985 0.0555 0.0000
vn 0.0000 -1.0000 0.0000
vn 0.9985 0.0555 0.0000
vn 0.9991 0.0384 0.0154
vn 1.0000 0.0000 0.0000
vn 0.0000 0.4061 0.9138
vn 0.9959 0.0369 -0.0830
vn 0.0000 0.0000 1.0000
vn 0.0000 0.9981 0.0624
vn -1.0000 0.0000 0.0000
vn 0.0000 0.0000 -1.0000
vn -0.9991 0.0384 0.0154
vn 0.0000 0.8944 -0.4472
usemtl Material
s off
f 1/1/1 5/2/1 7/3/1 3/4/1
f 7/5/2 8/6/2 12/7/2 11/8/2
f 8/6/3 7/5/3 5/9/3 6/10/3
f 6/11/4 2/12/4 4/13/4 8/14/4
f 2/12/5 1/1/5 3/4/5 4/13/5
f 1/1/6 2/12/6 18/15/6 17/16/6
f 10/17/7 9/18/7 13/19/7 14/20/7
f 8/14/4 4/13/4 10/17/4 12/21/4
f 3/4/8 7/3/8 11/22/8 9/18/8
f 4/13/9 3/4/9 9/18/9 10/17/9
f 14/20/10 13/19/10 15/23/10 16/24/10
f 9/18/11 11/22/11 15/25/11 13/19/11
f 11/8/12 12/7/12 16/26/12 15/27/12
f 12/21/4 10/17/4 14/20/4 16/28/4
f 20/29/13 19/30/13 17/16/13 18/15/13
f 6/10/14 5/9/14 19/30/14 20/29/14
f 2/12/4 6/11/4 20/31/4 18/15/4
f 5/2/15 1/1/15 17/16/15 19/32/15
